:SAMPLES-PER-SECOND 30
:FULLY-SPECIFIED
:DEGREES
291
root  11.5875 19.9201 -59.9341 -132.171 3.39867 158.853
RightUpLeg  -52.4752 -9.14652 0.903687
RightLeg  110.358 20.2486 -10.8494
RightFoot  1.06922 -0.164618 1.21728
RightToes  -5.82073e-011 -3.18055e-015 -2.98177e-016
Spine  39.1834 -4.16574 -10.0462
Spine1  3.48556 -7.69861 -3.18041
HEad  -17.8433 3.16041 11.9695
LeftShoulder1  -3.88251e-019 9.70628e-020 -3.87848e-018
LeftArm  1.58137 -34.419 -59.9662
LeftForeArm  25.6123 -1.40711 -5.69657
LeftHand  -7.54368 -9.02547 57.4425
RightShoulder  0.757561 7.80943 -0.64895
RightArm  0.761966 22.9744 76.4107
RightForeArm  -5.43628 7.75604 -9.1436
RightHand  -11.3872 9.57737 -75.1109
LeftUpLeg  -90.529 1.3388 -17.8297
LeftLeg  124.028 -19.4688 8.69726
LeftFoot  -37.9261 -1.27402 -5.31288
LeftToes  -3.44176e-011 4.05998e-011 -5.21293e-012
292
root  11.6359 20.0991 -59.7474 -134.046 1.60796 156.921
RightUpLeg  -50.2557 -11.208 -0.587345
RightLeg  111.228 19.4034 -8.64682
RightFoot  0.721739 -0.396609 3.14912
RightToes  -5.82073e-011 -3.18055e-015 -2.98177e-016
Spine  40.2328 -3.49312 -10.104
Spine1  3.96693 -7.6071 -1.28244
HEad  -16.9092 1.95625 12.6883
LeftShoulder1  -3.88251e-019 9.70628e-020 -3.87848e-018
LeftArm  3.39561 -36.1431 -62.749
LeftForeArm  28.0377 -1.3966 -5.47886
LeftHand  -5.71469 -7.95513 48.3909
RightShoulder  0.627346 7.90132 -1.61508
RightArm  -0.33717 22.9696 73.8006
RightForeArm  -5.89837 6.85761 -9.33329
RightHand  -11.1673 9.36908 -74.7982
LeftUpLeg  -95.7886 -0.201634 -21.4533
LeftLeg  121.749 -18.0302 7.30106
LeftFoot  -38.3858 -1.61959 -6.74157
LeftToes  -3.44176e-011 4.05998e-011 -5.21293e-012
293
root  11.6129 20.2741 -59.5443 -135.774 0.0507355 155.516
RightUpLeg  -48.2335 -12.7402 -2.03512
RightLeg  112.041 18.6496 -6.75412
RightFoot  0.453236 -0.555686 4.54234
RightToes  -5.82073e-011 -3.18055e-015 -2.98177e-016
Spine  40.6366 -2.45692 -9.57801
Spine1  4.49757 -6.86451 0.389066
HEad  -15.8042 0.17261 13.737
LeftShoulder1  -3.88251e-019 9.70628e-020 -3.87848e-018
LeftArm  5.6362 -37.5665 -66.0314
LeftForeArm  30.0759 -1.50013 -5.36889
LeftHand  -4.00821 -7.19828 37.1235
RightShoulder  0.583693 8.17774 -2.09253
RightArm  -1.83245 22.6421 70.0922
RightForeArm  -6.02904 5.77213 -9.54104
RightHand  -10.9232 9.18258 -74.2713
LeftUpLeg  -100.237 -2.18721 -25.2705
LeftLeg  117.963 -16.9116 6.45748
LeftFoot  -38.8398 -1.92613 -7.95489
LeftToes  -3.44176e-011 4.05998e-011 -5.21293e-012
294
root  11.5033 20.3879 -59.3052 -137.343 -0.821548 154.667
RightUpLeg  -46.7128 -13.5926 -3.59008
RightLeg  113.09 18.0057 -5.13149
RightFoot  0.248252 -0.622076 5.1811
RightToes  -5.82073e-011 -3.18055e-015 -2.98177e-016
Spine  40.8702 -1.15079 -8.73319
Spine1  4.29109 -5.64115 1.4205
HEad  -14.9334 -1.83832 14.5946
LeftShoulder1  -3.88251e-019 9.70628e-020 -3.87848e-018
LeftArm  8.06792 -38.2783 -68.9599
LeftForeArm  30.2299 -3.08285 -5.28462
LeftHand  -2.65797 -7.07732 25.4579
RightShoulder  0.560421 8.52446 -2.45969
RightArm  -3.28566 21.7773 65.8547
RightForeArm  -6.02692 4.59733 -9.47093
RightHand  -10.7592 9.09323 -73.7712
LeftUpLeg  -103.682 -4.0496 -29.46
LeftLeg  112.852 -16.7546 7.5394
LeftFoot  -38.5561 -1.89315 -7.89555
LeftToes  -3.44176e-011 4.05998e-011 -5.21293e-012
295
root  11.2996 20.3782 -59.0488 -138.822 -0.846817 154.447
RightUpLeg  -45.6758 -13.88 -5.08722
RightLeg  114.402 17.6073 -4.07439
RightFoot  -0.151483 -0.580736 4.99032
RightToes  -5.82073e-011 -3.18055e-015 -2.98177e-016
Spine  41.2479 0.204991 -7.79508
Spine1  3.26503 -4.24033 1.55008
HEad  -14.6594 -3.50636 15.0231
LeftShoulder1  -3.88251e-019 9.70628e-020 -3.87848e-018
LeftArm  10.0984 -38.5275 -70.697
LeftForeArm  28.5151 -7.82379 -4.85419
LeftHand  -1.53834 -7.17791 14.8803
RightShoulder  0.519176 8.70688 -2.83924
RightArm  -4.35303 20.6057 62.3178
RightForeArm  -5.80884 3.21757 -9.08567
RightHand  -10.6407 9.02838 -73.4047
LeftUpLeg  -105.687 -5.2194 -33.5264
LeftLeg  108.025 -17.6605 11.4636
LeftFoot  -36.758 -1.38937 -6.12836
LeftToes  -3.44176e-011 4.05998e-011 -5.21293e-012
296
root  11.0079 20.2903 -58.7847 -140.206 -0.32373 154.76
RightUpLeg  -45.1151 -13.8282 -6.14806
RightLeg  115.648 17.7564 -4.17236
RightFoot  -0.747545 -0.426134 3.83653
RightToes  -5.82073e-011 -3.18055e-015 -2.98177e-016
Spine  41.7436 1.21009 -6.81995
Spine1  2.29682 -2.92878 0.790577
HEad  -15.1335 -4.54347 15.1844
LeftShoulder1  -3.88251e-019 9.70628e-020 -3.87848e-018
LeftArm  11.4381 -38.9846 -70.9895
LeftForeArm  25.9821 -12.9687 -4.41357
LeftHand  -0.632631 -7.1581 6.34971
RightShoulder  0.491956 8.71563 -3.02369
RightArm  -4.99352 19.703 59.9058
RightForeArm  -5.43464 1.80357 -8.61917
RightHand  -10.4833 8.91268 -73.0229
LeftUpLeg  -106.292 -5.67061 -36.451
LeftLeg  105.101 -19.0603 16.8369
LeftFoot  -34.7357 -0.84879 -3.95678
LeftToes  -3.44176e-011 4.05998e-011 -5.21293e-012
297
root  10.646 20.1873 -58.5089 -141.291 0.303513 155.351
RightUpLeg  -45.1548 -13.8015 -6.57414
RightLeg  116.55 18.5905 -5.56709
RightFoot  -1.23799 -0.242243 2.27265
RightToes  -5.82073e-011 -3.18055e-015 -2.98177e-016
Spine  42.0289 1.74602 -5.7318
Spine1  1.96792 -1.7724 -0.379616
HEad  -16.1404 -5.28174 15.2361
LeftShoulder1  -3.88251e-019 9.70628e-020 -3.87848e-018
LeftArm  14.2348 -39.7093 -70.4054
LeftForeArm  21.1576 -18.2894 -3.16889
LeftHand  -0.0438965 -7.24883 0.741614
RightShoulder  0.499618 8.80515 -3.02234
RightArm  -5.26381 19.2489 57.7691
RightForeArm  -5.35413 0.696532 -8.09604
RightHand  -10.3235 8.81218 -72.5629
LeftUpLeg  -106.121 -5.78175 -37.7482
LeftLeg  104.165 -20.1643 20.4863
LeftFoot  -34.2341 -0.63217 -2.89408
LeftToes  -3.44176e-011 4.05998e-011 -5.21293e-012
298
root  10.2508 20.1062 -58.2302 -141.929 0.833847 155.861
RightUpLeg  -45.8307 -14.1371 -6.70603
RightLeg  117.037 19.8496 -7.69078
RightFoot  -1.21271 -0.155581 1.44044
RightToes  -5.82073e-011 -3.18055e-015 -2.98177e-016
Spine  42.0491 2.08443 -4.61185
Spine1  1.79927 -0.699578 -1.51061
HEad  -17.2745 -6.2322 15.1565
LeftShoulder1  -3.88251e-019 9.70628e-020 -3.87848e-018
LeftArm  21.737 -40.0327 -69.936
LeftForeArm  10.3035 -23.614 0.763953
LeftHand  0.195707 -7.72627 -1.47885
RightShoulder  0.499141 9.06975 -3.16791
RightArm  -5.39956 18.7094 55.1562
RightForeArm  -5.85653 0.0322431 -7.48146
RightHand  -10.2188 8.79207 -72.0811
LeftUpLeg  -106.008 -6.07493 -38.1229
LeftLeg  104.045 -20.5219 21.489
LeftFoot  -34.7949 -0.586235 -2.56518
LeftToes  -3.44176e-011 4.05998e-011 -5.21293e-012
299
root  9.85784 20.0643 -57.9478 -142.388 1.23058 156.008
RightUpLeg  -46.7187 -14.8552 -7.12931
RightLeg  117.304 21.0899 -9.72508
RightFoot  -0.711293 -0.183629 1.6185
RightToes  -5.82073e-011 -3.18055e-015 -2.98177e-016
Spine  42.2062 2.4536 -3.63909
Spine1  1.1859 0.273705 -2.49961
HEad  -18.3431 -7.48476 14.9891
LeftShoulder1  -3.88251e-019 9.70628e-020 -3.87848e-018
LeftArm  26.4404 -39.6441 -69.7376
LeftForeArm  0.913416 -28.2326 5.49133
LeftHand  0.121641 -8.66257 -0.741585
RightShoulder  0.481697 9.31033 -3.40646
RightArm  -5.83545 17.577 52.2581
RightForeArm  -6.59924 -0.118457 -7.15633
RightHand  -10.051 8.75554 -71.3139
LeftUpLeg  -106.274 -6.80882 -38.647
LeftLeg  103.726 -20.5529 21.8838
LeftFoot  -34.4395 -0.478379 -2.03658
LeftToes  -3.44176e-011 4.05998e-011 -5.21293e-012
